<svg width="301" height="311" viewBox="0 0 301 311" fill="none" xmlns="http://www.w3.org/2000/svg">
<path d="M45.72 250.47H32.43V254.61H39.15C38.31 258.15 34.86 258.99 32.79 258.99C28.65 258.99 25.47 255.9 25.47 251.4C25.47 246.9 28.59 243.81 32.97 243.81C35.79 243.81 37.89 245.16 38.7 247.11H45.42C44.19 240.63 38.49 237.96 32.85 237.96C24.39 237.96 18.75 243.42 18.75 251.4C18.75 259.35 24.63 264.84 32.28 264.84C36.75 264.84 39.9 263.01 41.64 260.46L41.73 264H45.72V250.47Z" fill="white"/>
<path d="M140.48 39.66C148.91 39.66 152.03 36.06 152.03 31.74C152.03 28.74 150.47 26.55 147.65 25.14V24.72C149.27 23.73 150.32 21.96 150.32 19.86C150.32 16.05 147.2 13.14 140.48 13.14C133.76 13.14 130.67 16.05 130.67 19.86C130.67 21.96 131.66 23.73 133.28 24.72V25.14C130.46 26.55 128.9 28.74 128.9 31.74C128.9 36.06 132.02 39.66 140.48 39.66ZM140.48 23.4C137.87 23.4 136.61 22.32 136.61 20.64C136.61 18.87 137.96 17.82 140.48 17.82C143 17.82 144.32 18.87 144.32 20.64C144.32 22.32 143.09 23.4 140.48 23.4ZM140.48 34.5C137.06 34.5 135.47 33 135.47 30.93C135.47 28.86 137.09 27.39 140.48 27.39C143.87 27.39 145.46 28.86 145.46 30.93C145.46 33 143.87 34.5 140.48 34.5ZM174.226 28.98V13.8H166.306L154.126 28.98V34.17H167.476V39H174.226V34.17H177.826V28.98H174.226ZM160.276 28.98L167.476 19.95V28.98H160.276Z" fill="white"/>
<path d="M152.14 56.8H140.2V82H152.14C162.1 82 165.76 76.57 165.76 69.4C165.76 62.2 162.1 56.8 152.14 56.8ZM152.14 76.3H146.98L147.01 62.47H152.14C156.49 62.47 158.98 64.81 158.98 69.4C158.98 73.96 156.49 76.3 152.14 76.3Z" fill="white"/>
<path d="M133.07 128L128.3 119.45C130.73 118.01 132.38 115.49 132.38 112.01C132.38 105.89 128.66 102.8 121.85 102.8H108.2V128H114.98V120.83H122.51L126.38 128H133.07ZM114.98 108.44H121.43C124.16 108.44 125.63 109.7 125.63 112.07C125.63 114.44 124.16 115.7 121.43 115.7H114.98V108.44Z" fill="white"/>
<path d="M180.864 128H187.644V102.8H180.864V128Z" fill="white"/>
<path d="M220.99 171H227.98L218.38 145.8H208.9L199.3 171H206.29L207.7 167.07H219.58L220.99 171ZM209.5 162L213.04 152.16H214.27L217.78 162H209.5Z" fill="white"/>
<path d="M97.99 171H104.98L95.38 145.8H85.9L76.3 171H83.29L84.7 167.07H96.58L97.99 171ZM86.5 162L90.04 152.16H91.27L94.78 162H86.5Z" fill="white"/>
<path d="M61.65 218.84C69.72 218.84 74.1 215.18 74.1 207.32V192.8H67.35V207.17C67.35 210.89 65.49 213.14 61.65 213.14C57.81 213.14 56.01 210.89 56.01 207.17V192.8H49.2V207.35C49.2 215.18 53.58 218.84 61.65 218.84Z" fill="white"/>
<path d="M270.63 264.84C278.73 264.87 282.9 262.05 282.9 256.86C282.9 250.56 276.66 249.96 271.8 249.09L269.07 248.61C266.73 248.22 265.77 247.29 265.77 246C265.77 244.35 267.33 243.27 270.54 243.27C274.11 243.27 275.76 244.65 276.12 246.72H282.18C282.18 240.15 277.47 237.96 270.66 237.96C263.31 237.96 259.26 240.87 259.26 245.7C259.26 251.49 264.33 252.54 269.13 253.35L272.28 253.89C275.1 254.34 276.18 255.21 276.18 256.65C276.18 258.36 274.29 259.53 270.63 259.5C266.67 259.5 264.87 258.12 264.72 255.99H258.6C258.51 262.11 262.59 264.84 270.63 264.84Z" fill="white"/>
<path d="M230.2 218H236.8V202.16H237.43L248.17 218H255.82V192.8H249.22V208.64H248.62L238.03 192.8H230.2V218Z" fill="white"/>
<path d="M1.2 307H7.98V300.67H14.79C21.54 300.67 25.32 297.49 25.32 291.22C25.32 284.95 21.54 281.8 14.76 281.8H1.2V307ZM7.98 295.03V287.44H14.28C16.89 287.44 18.54 288.7 18.54 291.22C18.54 293.74 16.89 295.03 14.25 295.03H7.98ZM45.5166 307.84C53.6166 307.87 57.7866 305.05 57.7866 299.86C57.7866 293.56 51.5466 292.96 46.6866 292.09L43.9566 291.61C41.6166 291.22 40.6566 290.29 40.6566 289C40.6566 287.35 42.2166 286.27 45.4266 286.27C48.9966 286.27 50.6466 287.65 51.0066 289.72H57.0666C57.0666 283.15 52.3566 280.96 45.5466 280.96C38.1966 280.96 34.1466 283.87 34.1466 288.7C34.1466 294.49 39.2166 295.54 44.0166 296.35L47.1666 296.89C49.9866 297.34 51.0666 298.21 51.0666 299.65C51.0666 301.36 49.1766 302.53 45.5166 302.5C41.5566 302.5 39.7566 301.12 39.6066 298.99H33.4866C33.3966 305.11 37.4766 307.84 45.5166 307.84ZM66.3403 307H88.0603V301.51H73.1203V296.74H87.5203V292.03H73.1203V287.29H88.0603V281.8H66.3403V307ZM109.567 307.84C117.637 307.84 122.017 304.18 122.017 296.32V281.8H115.267V296.17C115.267 299.89 113.407 302.14 109.567 302.14C105.727 302.14 103.927 299.89 103.927 296.17V281.8H97.1175V296.35C97.1175 304.18 101.497 307.84 109.567 307.84ZM143.034 281.8H131.094V307H143.034C152.994 307 156.654 301.57 156.654 294.4C156.654 287.2 152.994 281.8 143.034 281.8ZM143.034 301.3H137.874L137.904 287.47H143.034C147.384 287.47 149.874 289.81 149.874 294.4C149.874 298.96 147.384 301.3 143.034 301.3ZM178.982 307.84C187.352 307.84 192.962 302.35 192.962 294.4C192.962 286.42 187.352 280.96 178.982 280.96C170.582 280.96 164.972 286.42 164.972 294.4C164.972 302.35 170.582 307.84 178.982 307.84ZM178.982 301.99C174.872 301.99 171.692 299.02 171.692 294.4C171.692 289.75 174.872 286.81 178.982 286.81C183.062 286.81 186.272 289.75 186.272 294.4C186.272 299.02 183.062 301.99 178.982 301.99ZM201.578 307H208.178V291.16H208.808L219.548 307H227.198V281.8H220.598V297.64H219.998L209.408 281.8H201.578V307ZM262.717 281.8H255.577L249.277 292.48H248.647L242.377 281.8H235.207L245.587 298.99V307H252.337V299.02L262.717 281.8ZM270.726 307H277.206V293.17H277.776L282.516 307H287.706L292.446 293.17H293.016V307H299.496V281.8H290.886L285.366 298.36H284.856L279.336 281.8H270.726V307Z" fill="white"/>
<path d="M134.8 239H179.98V222.56H154.54V188.6H134.8V239Z" fill="white"/>
<rect x="134.8" y="166" width="19.75" height="23" fill="white"/>
</svg>
